<svg xmlns="http://www.w3.org/2000/svg" width="1024" height="1024" viewBox="0 0 100 100">
  <title>DUXO</title>
  <defs>
    <linearGradient id="tile" x1="0" y1="0" x2="1" y2="1">
      <stop offset="0" stop-color="#141C38"/><stop offset="1" stop-color="#070A14"/>
    </linearGradient>
    <radialGradient id="glow" cx="50" cy="50" r="46" gradientUnits="userSpaceOnUse">
      <stop offset="0" stop-color="#22D3EE" stop-opacity=".22"/><stop offset="1" stop-color="#22D3EE" stop-opacity="0"/>
    </radialGradient>
    <linearGradient id="brand" x1="22" y1="22" x2="78" y2="78" gradientUnits="userSpaceOnUse">
      <stop offset="0" stop-color="#22D3EE"/><stop offset="1" stop-color="#A78BFA"/>
    </linearGradient>
    <filter id="blur" x="-1" y="-1" width="3" height="3"><feGaussianBlur stdDeviation="3"/></filter>
  </defs>
  <g>
    <rect width="100" height="100" rx="23" fill="url(#tile)"/>
    <circle cx="50" cy="50" r="46" fill="url(#glow)"/>
    <path d="M50 50 28 28M50 50 72 28M50 50 72 72M50 50 28 72" stroke="url(#brand)" stroke-width="9" stroke-linecap="round"/>
    <g fill="url(#brand)"><circle cx="28" cy="28" r="9"/><circle cx="72" cy="28" r="9"/><circle cx="72" cy="72" r="9"/><circle cx="28" cy="72" r="9"/></g>
    <g fill="#0D1326"><circle cx="28" cy="28" r="3.6"/><circle cx="72" cy="28" r="3.6"/><circle cx="72" cy="72" r="3.6"/><circle cx="28" cy="72" r="3.6"/></g>
    <circle cx="50" cy="50" r="11" fill="#22D3EE" fill-opacity=".35" filter="url(#blur)"/>
    <circle cx="50" cy="50" r="7" fill="#EEF2FA"/>
  </g>
</svg>
